<svg width="56" height="56" viewBox="0 0 56 56" fill="none" xmlns="http://www.w3.org/2000/svg">
<path d="M55.1118 27.9419C55.1118 30.2993 53.1473 32.2638 50.9209 32.2638H32.062V51.1227C32.062 53.3491 30.0976 55.1826 27.8712 55.1826C25.5138 55.1826 23.6803 53.3491 23.6803 51.1227V32.2638H4.8214C2.46404 32.2638 0.630539 30.2993 0.630539 27.9419C0.630539 25.7155 2.46404 23.882 4.8214 23.882H23.6803V5.02314C23.6803 2.66578 25.5138 0.701309 27.8712 0.701309C30.0976 0.701309 32.062 2.66578 32.062 5.02314V23.882H50.9209C53.1473 23.7511 55.1118 25.7155 55.1118 27.9419Z" fill="#1F87AA"/>
</svg>
