<svg width="60" height="52" viewBox="0 0 60 52" fill="none" xmlns="http://www.w3.org/2000/svg">
<path d="M57.8268 28.9541L36.8725 49.9084C36.0867 50.6942 35.039 51.0871 33.9913 51.0871C32.8126 51.0871 31.7649 50.6942 30.9791 49.9084C29.2766 48.3369 29.2766 45.5866 30.9791 44.015L44.7304 30.1328H4.65523C2.29787 30.1328 0.464367 28.2993 0.464367 25.9419C0.464367 23.7155 2.29787 21.7511 4.65523 21.7511H44.7304L30.9791 7.99979C29.2766 6.42822 29.2766 3.67796 30.9791 2.10639C32.5507 0.403848 35.3009 0.403848 36.8725 2.10639L57.8268 23.0607C59.5294 24.6323 59.5294 27.3825 57.8268 28.9541Z" fill="white"/>
</svg>
