<svg width="17" height="16" viewBox="0 0 17 16" fill="none" xmlns="http://www.w3.org/2000/svg">
<path d="M2.875 0.15683L11.3828 0.15683C11.9805 0.15683 12.5781 0.402924 13 0.824799L15.707 3.53183C16.1289 3.9537 16.375 4.55136 16.375 5.14902L16.375 13.6568C16.375 14.9225 15.3555 15.9068 14.125 15.9068L2.875 15.9068C1.60937 15.9068 0.625 14.9225 0.625 13.6568L0.625 2.40683C0.625 1.17636 1.60937 0.15683 2.875 0.15683ZM2.875 3.53183L2.875 5.78183C2.875 6.41464 3.36719 6.90683 4 6.90683H10.75C11.3477 6.90683 11.875 6.41464 11.875 5.78183V3.53183C11.875 2.93417 11.3477 2.40683 10.75 2.40683L4 2.40683C3.36719 2.40683 2.875 2.93417 2.875 3.53183ZM8.5 9.15683C7.69141 9.15683 6.95312 9.61386 6.53125 10.2818C6.14453 10.985 6.14453 11.8639 6.53125 12.5318C6.95312 13.235 7.69141 13.6568 8.5 13.6568C9.27344 13.6568 10.0117 13.235 10.4336 12.5318C10.8203 11.8639 10.8203 10.985 10.4336 10.2818C10.0117 9.61386 9.27344 9.15683 8.5 9.15683Z" fill="white"/>
</svg>
