<svg width="56" height="56" viewBox="0 0 56 56" fill="none" xmlns="http://www.w3.org/2000/svg">
<path d="M0 8C0 3.58172 3.58172 0 8 0H48C52.4183 0 56 3.58172 56 8V48C56 52.4183 52.4183 56 48 56H8C3.58172 56 0 52.4183 0 48V8Z" fill="#CEF3FF"/>
<path d="M28 28C24.6719 28 22 25.3281 22 22C22 18.7188 24.6719 16 28 16C31.2812 16 34 18.7188 34 22C34 25.3281 31.2812 28 28 28ZM30.3438 30.25C34.8438 30.25 38.5 33.9062 38.5 38.4062C38.5 39.2969 37.75 40 36.8594 40H19.0938C18.2031 40 17.5 39.2969 17.5 38.4062C17.5 33.9062 21.1094 30.25 25.6094 30.25H30.3438Z" fill="#1F87AA"/>
</svg>
