<svg width="54" height="55" viewBox="0 0 54 55" fill="none" xmlns="http://www.w3.org/2000/svg">
<path d="M51.3708 4.85584C53.6758 7.16081 53.6758 10.8278 51.3708 13.1328L48.2277 16.2759L37.96 6.00832L41.1032 2.86517C43.4082 0.560198 47.0752 0.560198 49.3802 2.86517L51.3708 4.85584ZM18.0534 25.9149L35.5503 8.41807L45.8179 18.6857L28.3211 36.1826C27.6924 36.8112 26.8543 37.335 26.0161 37.6494L16.6914 40.6877C15.7485 41.0021 14.8055 40.7925 14.1769 40.0591C13.4435 39.4305 13.2339 38.3828 13.5483 37.5446L16.5866 28.2199C16.9009 27.3817 17.4248 26.5436 18.0534 25.9149ZM20.1489 7.26558C21.93 7.26558 23.5016 8.83716 23.5016 10.6183C23.5016 12.5042 21.93 13.971 20.1489 13.971H10.0908C8.2049 13.971 6.7381 15.5425 6.7381 17.3237V44.1452C6.7381 46.0311 8.2049 47.4979 10.0908 47.4979H36.9123C38.6935 47.4979 40.265 46.0311 40.265 44.1452V34.0871C40.265 32.306 41.7318 30.7344 43.6177 30.7344C45.3988 30.7344 46.9704 32.306 46.9704 34.0871V44.1452C46.9704 49.6981 42.4652 54.2033 36.9123 54.2033H10.0908C4.43312 54.2033 0.0327148 49.6981 0.0327148 44.1452V17.3237C0.0327148 11.7708 4.43312 7.26558 10.0908 7.26558H20.1489Z" fill="#1F87AA"/>
</svg>
